<svg xmlns="http://www.w3.org/2000/svg" version="1.1" xmlns:xlink="http://www.w3.org/1999/xlink" xmlns:svgjs="http://svgjs.com/svgjs" width="1920" height="1080" preserveAspectRatio="none" viewBox="0 0 1920 1080"><g mask="url(&quot;#SvgjsMask1022&quot;)" fill="none"><rect width="1920" height="1080" x="0" y="0" fill="rgba(208, 74, 2, 1)"></rect><path d="M0,847.929C156.268,831.148,293.349,745.714,416.435,647.985C530.384,557.51,610.606,438.585,677.975,309.621C748.674,174.281,821.027,35.262,816.235,-117.357C811.152,-279.261,769.206,-453.433,650.556,-563.71C534.565,-671.515,351.17,-634.847,202.068,-688.181C40.18,-746.088,-99.557,-948.212,-261.291,-889.875C-426.059,-830.444,-421.897,-590.536,-501.382,-434.45C-559.508,-320.307,-616.923,-214.152,-665.705,-95.714C-731.585,64.236,-875.638,213.845,-837.937,382.673C-800.126,551.992,-629.852,659.838,-478.175,744.055C-332.625,824.87,-165.529,865.705,0,847.929" fill="#a63b02"></path><path d="M1920 1893.258C2089.208 1892.5030000000002 2276.945 1948.152 2415.558 1851.103 2553.673 1754.403 2560.297 1557.558 2623.008 1401.0529999999999 2682.319 1253.033 2799.054 1114.689 2773.7219999999998 957.253 2748.465 800.278 2616.8450000000003 682.669 2491.65 584.663 2381.716 498.60400000000004 2243.786 472.67600000000004 2108.865 436.78599999999994 1977.529 401.85 1849.608 372.65200000000004 1713.801 377.749 1541.774 384.20500000000004 1332.2350000000001 342.98199999999997 1216.3490000000002 470.283 1100.884 597.121 1192.117 802.125 1172.374 972.508 1153.345 1136.731 1057.529 1294.263 1102.434 1453.37 1149.88 1621.481 1267.766 1772.7730000000001 1421.592 1855.538 1571.346 1936.113 1749.9470000000001 1894.017 1920 1893.258" fill="#fa5902"></path></g><defs><mask id="SvgjsMask1022"><rect width="1920" height="1080" fill="#ffffff"></rect></mask></defs></svg>